
<svg xmlns="http://www.w3.org/2000/svg" width="627.449px" height="718.846px" viewBox="0 0 627.449 718.846"  fill="#fff">
<g>
<g>
<path d="M232.437,116.914c1.205,2.693,3.497,1.143,5.399,2.295c1.317,1.489,3.037,2.125,4.757,2.693
c1.031,0.29,1.671,1.609,2.927,1.433c2.414,2.355,4.542-0.858,7.235-0.397c1.034,0.229,2.007,0.971,2.526,1.892
c0.347,1.782-0.579,3.041-0.862,4.537c0.283,0.748,0.692,1.605,1.44,1.896c2.699-0.175,5.395,1.949,7.689,0
c0.923-2.067,1.602-4.192,2.063-6.433c-0.461-1.32,0.928-2.637,0.462-3.961c1.204-2.582,0-6.14,1.834-8.492
c1.094-0.404,1.555-0.116,2.697,0c3.16,1.544,5.406,4.131,8.098,6.198c0.229,0.862,0.689,1.838,0.229,2.697
c-0.171,2.295,0.349,4.593-0.403,6.891c-0.628,3.042,2.817,3.899,1.835,7.057c0.689,1.609,2.648,1.09,3.732,2.069
c1.038,0.515,2.358,0.742,3.336,0.63c1.493-0.054,2.58-0.63,3.557-1.493c2.642,0.458,4.997-1.265,7.288-2.47
c1.262-1.089,2.474-2.065,2.871-3.728c-0.055-5.055-1.838-9.359-2.064-14.35c0.455-3.099,0.057-6.888-0.403-10.16
c-1.377-2.474,0.284-5.509-0.864-8.097c-0.337-1.203-0.109-2.923-0.17-3.96c-0.401-1.261-0.167-2.982-0.227-4.129l0.227-0.23
c0.061-1.322-0.167-3.331,0.17-4.761c0.344-0.695-0.631-1.091,0-1.671c0.058-2.178-0.228-4.937,1.032-6.83
c0.805-0.8,1.265-0.288,2.3-0.46c1.147,0.975,1.776,2.127,2.068,3.333c-0.233,2.808-0.462,5.678,0.226,8.093
c0.233,5.684-1.089,12.516,3.508,16.643c0.346,0.81,0.165,1.954,1.259,2.299c1.724,3.732,6.144,3.962,7.921,7.233
c2.297,1.431,4.245,3.899,7.062,4.187c1.664,1.035,3.501,1.663,5.565,1.837c2.527,1.953,5.688,0.463,8.326,2.067
c2.463-0.114,4.701,2.125,7.063,0.459c1.321-0.286,2.751-0.286,3.96-0.863c1.258,0.29,2.351-0.456,3.329-0.23
c1.545,0,2.693-1.608,4.358-0.8c1.035-0.689,2.186-0.345,3.327-0.633c2.471-2.125-1.201-3.674-0.63-6.024
c0.521-2.241-0.222-4.42-2.298-5.799c-0.68-3.154-3.036-5.627-3.322-8.953c0.286-1.951,1.604-3.446,3.322-4.537
c1.786-1.09,0.12-2.813,0.636-4.36c-0.516-0.577-1.265-1.093-1.265-1.894c-1.206-1.783-1.834-4.023-2.693-5.8
c-1.436-0.457-2.589-0.571-4.136-0.231c-1.608-0.4-3.612,0.114-4.821-1.204c-0.401-1.031-0.167-2.925,0.628-3.964
c-0.396-2.292,0.12-4.127-1.203-6.026c-0.287-1.664-0.287-3.445-0.859-4.992c1.546-2.581,3.156-5.168,4.589-7.86l-0.227-0.234
c-0.403-2.693,1.492-5.222,0.863-8.084c0.74-1.385,2.181-2.074,3.329-3.104c0.285-0.978-0.577-1.436-0.868-2.124
c-1.486-0.458-2.401-2.299-3.955-2.702c-1.264-1.088-3.271-2.294-2.872-4.358c2.297-2.18,4.596-3.16,7.064-5.162
c2.928-0.525,3.389-3.449,4.532-5.632c-0.116-2.814-0.52-4.702-1.205-7.235c0.458-1.83-2.067-2.06-2.934-3.326
c-1.195-3.732-4.819-6.312-8.089-8.089c-1.086,0.113-2.177,0.342-2.926,1.434c-2.237,3.153-5.116,7.001-8.725,8.72
c-4.88,2.3-5.57-3.557-8.729-5.798c-0.803-4.766-5.799-5.568-8.725-8.323c-3.039,0.118-5.107-2.698-8.264-1.66
c-2.64-1.38-6.028-1.327-8.956-1.266c-2.579-1.208-5.57-0.231-8.321-0.402c-0.802,0.979-2.066-0.171-2.867,0.234
c-1.9,0.055-3.682-0.175-5.63,0.168c-1.84-0.461-3.327,0.976-5.228,0c-1.554-0.061-2.467,0.173-3.899-0.168
c-3.325-1.667-5.343,2.462-8.957,1.435c-1.835,1.373-0.164,3.325,0.234,4.758c-0.638,2.467,0.862,4.596,1.835,6.659
c0.574,1.21,0.462,2.986,1.665,3.503c2.463,2.93,6.258,4.303,9.992,4.82c1.2,0.579,2.979-0.406,3.958,0.808
c2.982-0.348,5.107,1.32,7.459,2.524c3.676,1.089,7.293,2.24,10.562,4.137c2.816-0.695,5.514,0.112,7.526,2.063
c2.741,0.287,4.869,0.287,7.458,0.859c1.895,0.752,1.377,2.87,2.064,4.365c-0.971,1.435,0.916,2.238,0.631,3.729
c0.635,2.012,0.285,4.936,1.904,6.829c0.452,2.239,1.083,4.365,2.062,6.434c2.292,3.1,3.381,7.742,7.688,8.549
c1.263,0.92,2.697,2.238,2.697,3.899c-1.491,6.542-7.004,11.429-8.093,18.09c0.579,1.713,2.237,2.868,3.502,3.958
c0.798,2.177,2.126,3.901,4.132,5.395c1.661,2.177,3.217-0.573,4.995-0.633c0.913-0.459,2.012-0.113,2.697,0.633
c0.749,1.375,1.146,2.922,1.268,4.535c0.742,0.684,1.316,1.494,1.661,2.292c0.914,0.746,1.836,1.611,3.101,1.497
c2.063,2.237,4.48,0,7.058,1.032c0.405,0.57,1.438,0.919,1.029,1.84c-0.564,0.685-1.202,1.144-2.063,1.26
c-1.889,1.494-4.012,2.239-6.424,2.467c-1.378-1.724-2.929,0.863-4.362-0.573c-1.382,0.058-2.59,0.23-4.136,0.168
c-2.699-1.489-6.087-1.206-8.726-2.692c-3.563-0.291-6.544-2.359-9.186-4.598c-2.237-3.097-1.035-7.058,0-10.329
c4.361-3.959,0.284-10.675,4.821-14.582c1.609-3.041,3.163-7.459,1.033-10.789c-2.642-2.817-2.58-7.464-6.659-8.899
c-3.557-3.617-8.839-3.036-13.717-3.327c-0.23,0.175-0.805,0.458-1.035,0.175c-0.225,0-0.284,0.116-0.4,0.227
c-2.124-0.342-1.896-2.758-2.695-4.132c-0.233-2.988,2.812-4.594,2.695-7.522c-0.229-0.857-0.864-1.833-0.629-2.694l-0.807-1.035
c-0.227-1.838-2.013-3.216-2.53-4.761c-3.037,0.284-4.466-2.698-6.653-4.133c-1.09-0.292-2.29-0.292-3.329-0.864
c-1.668,0.572-3.277,1.438-5.169,1.667c-2.346,0.915,0.23,3.436-1.431,4.761c-1.207,0.631-2.875-0.053-3.958-1.028
c-1.039-0.237-1.555-2.472-2.933-1.434c-1.202-0.811-2.183-2.07-3.5-2.528c-2.582-1.549-6.197-0.574-8.557,0.86
c-1.146,0.689-3.155-0.578-3.903,1.032c-1.611,0.287-2.121,2.296-3.559,2.694c-2.531,4.021-5.74,6.834-7.86,10.794
c-2.646,1.203-3.334,4.478-6.031,5.393c-0.055,1.266-1.717,2.015-2.065,2.93c0.575,2.412,1.374,4.706,3.096,6.658
c0.579,3.042,2.873,5.396,2.873,8.723l2.292,1.441c3.679,2.923,2.299,7.919,4.373,11.419c-0.465,2.639,1.828,5.166,0.395,7.917
c-0.686,1.208-2.469,2.244-2.869,3.505c-1.84,1.094-1.898,3.271-3.561,4.592c-1.489,0.69-2.758,2.41-4.361,3.269
c-1.55,4.307-6.775,4.826-7.69,9.365C232.15,112.317,232.61,114.326,232.437,116.914z M339.78,52.102
c-0.403,0-1.49,0.17-2.064-0.168c-1.953,0.228-4.424,0.688-5.804-1.033c-1.951,0.17-2.523-2.069-3.73-3.101
c0.171-1.09-0.285-2.126-0.857-2.758c-0.175-2.066-1.092-3.789-1.031-5.967c0.682-0.751,0.398-1.838,0.624-2.698
c0.979-0.864,0.979-2.294,2.472-2.294c1.84-0.116,3.389,0.398,4.993,0.799c0.862,1.611,3.845,2.182,3.334,4.595
c-0.863,1.318-0.98,2.984,0,4.364c1.316,2.235,4.131,3.442,6.196,5.165c0.291,0.978,0.514,1.665-0.167,2.527
C342.478,51.934,341.103,52.562,339.78,52.102z M275.601,60.024c1.841,0.283,4.192,0.921,4.596,2.924
c-0.231,3.388-4.019,4.133-6.029,6.203c-1.092,0.11-2.695,0.688-3.563-0.404C271.869,65.646,271.012,60.595,275.601,60.024z
M264.582,105.314c1.264-3.677,6.085-4.022,7.287-7.923c1.033-0.86,2.813-1.092,3.556,0.228c0.352,2.069,0,4.998,1.04,7.062
c0.459,0.689,0,1.437-0.229,2.074c-1.492,1.945-3.555,1.774-5.8,1.891c-0.403-0.867-1.381-0.117-1.891-0.636
c-1.213,1.038-2.473-0.114-3.504-0.629C264.062,107.035,264.354,105.887,264.582,105.314z M339.21,163.999l-4.765-6.431
l-1.032-0.401c-1.03,1.551-2.126,2.871-3.728,4.362c-1.55,0.748-2.931,1.841-4.366,2.872c-0.804,2.644-2.931,4.65-4.991,6.656
c-4.652,3.153-4.016-3.498-6.66-5.166c-3.673-0.627-2.641-6.315-6.832-5.795c-1.725,1.551-1.608,3.843-3.328,5.394
c1.438,1.838,1.72,4.188,3.328,6.028c0.86,4.363,4.191,7.695,7.289,11.193c1.662,0,2.757,1.778,4.535,0.634
c3.098,1.719,6.146-0.579,9.355-0.4c1.67-1.783,3.849-2.358,6.026-2.932c3.564,0.054,3.849-3.959,6.829-5.223
c-0.106-1.375,1.84-2.009,1.499-3.502C343.287,168.075,339.846,166.642,339.21,163.999z M241.628,215.947
c-0.922,3.955-1.49,8.147-2.693,12.053c0.57,4.251-0.403,9.072,0.802,13.09c-0.692,2.698,1.781,4.072,2.929,5.965
c1.091,1.094,3.037,2.18,3.499,3.792c0.695,1.031,1.661,2.119,3.161,1.664c1.663,1.091,3.73,0.571,5.392,0.403
c4.822,1.606,9.936,0.052,13.725-2.702c3.961-0.399,7.055-3.098,10.557-4.589c1.208-0.112,2.473,0,2.926,1.267
c0.115,1.887,1.495,3.895,0.404,5.794c0.802,2.472-1.035,5.278,0.223,7.92c-1.311,1.259-1.829,2.758-3.553,3.502
c-0.454,1.32-2.123,1.604-3.324,2.064c-0.923,0.92-2.475,0.92-3.499,0.861c-1.038,0.578-2.758-0.342-3.563,0.808
c0.058,1.432,1.772,1.548,2.692,2.061c1.209,0.75,2.013,2.012,2.701,3.16c0.973,0.806,0.693,2.241,1.037,3.33
c2.292,2.816,5.679,3.9,9.176,4.359c0.865,1.208,1.779-0.627,2.702,0c2.749-0.742,4.359-3.095,5.963-5.394
c1.097-3.158,2.187-6.256,2.296-9.754c1.209-1.439,1.098-3.333,1.669-4.998c0.116-4.651,1.772-9.411-0.628-13.549
c0.057-0.396-0.06-0.738-0.403-1.033c0.802-3.268-2.766-4.994-4.137-7.23c-4.531-2.813-9.697-4.074-14.115-7.063
c-0.854-2.008,1.726-3.097,2.301-4.768c0-2.008-2.071-3.212-1.898-5.221c-2.472-1.61-3.04-4.533-2.695-7.286
c-2.301-4.479,3.963-5.97,3.1-10.333c-0.921-3.159-3.444-5.226-5.4-7.692c-0.569-1.093,0.172-2.237,0.228-3.33
c1.896-1.206,0.457-3.844,2.073-5.223c0.919-0.633,1.833-1.262,3.1-1.035c1.948-1.895,3.667-4.304,4.989-6.657
c0.172-2.069,1.604-4.878-0.402-6.599c0.061-1.611-1.719-1.958-2.063-3.333c-1.605-2.297-3.044-4.071-4.363-6.43
c-2.757-1.319-2.987-4.019-5.396-5.621c-2.354-2.356-4.479,0.857-7.061,0.397c-1.553-0.397-2.642-0.055-4.193-0.397
c-2.296,0.975-5.224,1.603-7.689,1.027c-2.752,0.978-3.5,3.965-4.529,6.258c-6.551,1.838-0.353,7.062-1.039,10.965
c0.401,0.859,1.089,1.833,0.805,2.698l0.234,0.23l-0.234,0.229c0.396,0.287,0,1.035,0.629,1.205
c2.524,0.748,1.896,3.503,2.93,5.222c0.568,0.748,1.374,1.091,2.236,1.208c1.149,1.665,3.442,0.401,4.991,1.091
c1.5,0.859,2.414,2.355,2.305,4.133c-1.215,2.123-3.334,0.286-5.168,0.803c-0.863,1.833-4.535,3.158-3.56,5.624
c1.95,1.55,2.755,4.252,4.761,5.624c2.356,1.549,3.563,4.824,5.631,6.831c0.171,1.322,0.685,2.531-0.405,3.564
c-0.63,2.063-2.694,3.38-4.192,4.756c-0.688,0.172-2.007,0.689-2.465-0.4c-0.463-1.609-0.979-3.436,0.399-4.816
c0.403-2.068,0.462-4.595-1.435-5.97c-2.53-1.321-2.231-4.539-4.594-6.259c-0.226-0.231-0.8-0.46-1.039-0.231
c-0.161,0-0.514,0.06-0.629-0.17c-1.084,0.512-1.883-0.228-2.869,0.632c-0.396,1.837-0.169,4.249-0.223,6.028
C243.41,210.837,244.212,214.049,241.628,215.947z M254.087,226.734c0.63-0.572,1.087-1.38,2.067-1.029
c1.032,0.457,1.146,1.429,1.662,2.295c1.672,2.581,4.767,3.441,7.459,4.539c0.527,0.796,0,1.773-0.797,2.063
c-1.955,0.513-3.329,3.386-5.394,2.295c-1.556,0.23-2.931,1.379-4.596,0.631c-0.977,0.29-1.199-0.915-1.667-1.435
C253.056,232.94,253.114,229.605,254.087,226.734z M297.479,168.589c0-2.181-2.926-2.064-3.093-4.189
c-0.806-1.086-2.358-0.802-2.935-2.065c-1.144-0.401-1.781,0.571-2.465,1.263c-1.203,0.282-2.58-0.228-3.56-1.037
c-1.208,0.063-1.092,1.377-1.661,2.069c-0.404,0.859-0.174,1.949,0.627,2.526c0.573,4.021,3.729,6.998,3.96,11.197
c1.786,2.114,1.786,5.052,3.328,7.286c2.015,1.838,2.477,4.365,4.54,6.196c1.719,0.291,2.811,1.958,4.588,2.069
c0.754,0.805,1.148,1.665,1.266,2.7c-0.86,1.084-1.903,1.491-3.157,1.032c-2.127,1.261-4.139,0.345-6.429,0
c-0.692-0.289-1.096,0.631-1.661,0c-3.562-0.054-4.938,3.271-7.466,5.397c-2.529,2.695-0.459,6.545-0.231,9.585
c0.514,0.228,0.462,0.804,0.462,1.264c0.914,2.234,1.492,4.932,4.129,6.196c2.982,1.488,0.861,5.334,4.365,6.426
c0,1.897,1.662,3.046,1.434,4.997c0.402,0.288,0.461,0.628,0.461,1.037c1.837,0.737,1.545,2.753,3.268,3.729
c1.95,2.693,5.4-0.175,7.292,2.525c0.571,0.458,1.376,0.058,1.661-0.4c-0.337-1.034-0.169-2.528-0.228-3.331l0.228-0.229
c-1.144-2.581,0.521-6.314-0.624-8.957c-0.35-1.262-0.35-2.984,0.854-3.904c2.238-1.089,4.022,1.722,5.573,3.099
c0.633,1.092-0.286,2.064,0,3.333c-0.689,0.971-1.325,2.752-2.868,2.697c0.112,1.841-1.325,4.015,0.394,5.394
c0.806,2.818,4.139,1.27,4.769,4.136c0.17,2.411,0.061,5.393-2.294,6.889c-0.923,0.455-2.247-0.058-3.096,0.172
c-2.707,0.403-5.913,0.171-8.507,0.23c0.75,2.235,1.905,4.59,1.445,7.061c0.974,1.549,1.258,3.443,2.292,4.993
c0.919,1.034,1.954,2.752,3.324,2.868c2.066,1.667,4.826,1.724,6.662,3.96c0.46,0.977,0.746,2.18,0.574,3.098l0.231,0.235
l-0.231,0.227l0.457,0.401c-0.688,1.037,0.52,2.182-0.457,3.102c0.457,3.324-0.056,7.061,0.457,10.39
c-1.547,2.008-0.571,4.19-0.858,6.655c-0.454,1.375-2.067,2.581-1.431,4.133c0.801,0.114,1.316-0.46,1.832-1.033l-0.175-0.172
c1.322,0,0.81-1.553,1.21-2.294c2.123-2.067,3.785-4.364,4.992-6.892c0.806-0.976,2.063-0.629,3.154-1.032
c2.474,1.552,3.681-1.723,5.405-2.295c3.033-2.927,2.751-7.17,2.695-11.426c0.458-3.153,3.95-0.741,5.565-2.061
c2.123-0.808,4.305-0.061,6.257-0.632c5.626,1.091,6.885-5.516,9.354-8.723c0.234-1.725,1.379-4.083-0.23-5.571
c-0.343-2.813-1.377-5.909-3.958-7.292c-1.145-1.952-3.444-2.125-4.937-3.73c-1.205-1.092-0.971-2.752-1.896-3.961
c-0.34-0.115-0.576,0.229-0.858,0.46c0.059,2.121-1.384,3.214-2.699,4.762c-2.007,0.46-2.871,2.357-4.939,2.7
c-1.201-0.462-3.096,0.229-3.562-1.494c-1.543-3.27,2.646-4.76,3.106-7.463c-2.355-1.666-5.685-4.021-5.568-7.235
c1.609-1.889,3.9,0.061,5.796-0.635c2.519,0.119,3.272,3.737,5.626,3.914c1.832-0.177,2.928-1.841,3.908-3.279
c-0.695-3.268,2.521-5.281,4.358-7.061c2.697-1.778,1.37-5.391,4.364-6.885c-0.06-1.028-0.06-2.059,0.855-2.693
c1.957-3.733,5.861-8.5,2.473-12.688c-2.756-1.437-5.511-3.787-8.099-5.975c-2.239-0.341-3.952-2.065-6.429-1.663
c-2.237,2.073-4.877-0.519-7.457,0.577c-0.92,0.061-2.009,0.344-2.704,0.232c-1.142-0.232-2.643,0.454-3.732,0.228
c-1.258,0.625-2.406,0.461-3.787,0.171c-0.859,0.171-1.888,0.573-2.693,0.455c-1.661,0.577-3.559,0.577-5.397,0.809
c-1.664,0-3.558,0.17-4.942-0.631c-0.509-0.462,0-1.032,0.183-1.435c2.872-0.924,0.688-4.018,1.024-6.023
c-2.001-1.96-1.545-5.114-4.128-6.662c-1.149-1.839-2.697-3.847-4.137-5.392C299.372,174.105,299.889,170.43,297.479,168.589z
M322.624,204.123c0.856-0.86,1.665-1.949,2.923-1.896c2.869,0.288,5.971,0.288,9.127,0c0.641-0.231,1.329,0.458,2.068,0.632
l1.44,1.662c1.083,2.763,0.685,5.631-0.408,8.326c0.237,1.89,0.806,3.906,0,5.968c-0.345,1.087-0.863,2.067-1.662,2.927
c-0.227,0-0.519-0.059-0.635,0.229c-0.4-0.17-1.093,0.225-1.661,0.405c-1.035-0.291-2.467-0.115-2.87-1.435
c-0.053-1.322-1.551-2.011-1.491-3.331c-1.614-2.063-4.252-3.674-2.878-6.426c0.178-1.949-2.696-2.009-2.288-3.96
C323.538,206.304,322.047,205.614,322.624,204.123z M307.239,209.058c0.457-0.685,1.896-0.743,2.7-0.398
c0.635,0.226,1.72,0.345,1.662,1.261c0.342,1.896,0.745,4.016-0.638,5.627c-1.661,0.288-2.869,0.288-4.533,0
C305.637,213.422,305.974,210.837,307.239,209.058z M237.669,269.326c-1.376,2.014-4.017,1.897-4.996,4.142
c1.212,1.546-0.055,4.816,2.699,4.991c3.393,1.089,2.354,4.878,4.997,6.427c2.815,2.698,6.538,0.116,9.986,0.631
c1.723-2.411,4.479-1.954,6.198-4.364c4.251-1.781,3.271-6.831,6.652-8.955c0.582-2.237,1.5-3.898,0.87-6.427
c1.836-2.354,2.41-5.288,3.273-8.09c-0.173-0.633-0.918-0.231-1.203-0.633c-2.94,0.914-6.264,0.803-9.133,1.664
c-0.807,0.284-1.265,1.208-2.297,0.858c-0.974,1.15-2.409,1.095-3.327,2.238c-2.416,0.747-3.449,3.503-6.032,3.794
c-1.146,1.088-2.754,1.146-3.95,2.238C239.736,267.319,239.392,269.961,237.669,269.326z M316.502,391.626
c0.629-0.176,1.495-0.577,2.067-0.461c0.63-0.348,1.494-0.116,2.294-0.171c2.354,1.665,5.86,0.632,7.862,3.324
c1.958-0.051,3.271,1.381,5.23,1.44c0.625-0.636,1.49,0.289,2.063,0c0.182-0.06,0.287,0.117,0.404,0.226
c0.979-0.626,1.834,0.294,2.93,0c2.746-0.799,4.59-2.35,6.425-4.819c1.838-0.629,1.669-2.704,3.104-3.906
c1.316-2.179-1.492-3.27-0.812-5.449c-1.602-1.434-2.175-3.674-2.524-5.8c-1.661-1.723-0.629-4.646-2.702-6.021
c-2.808-0.696-2.232-4.598-5.157-4.533c-2.761,1.145-4.77-1.327-7.292-0.636c-1.896,2.064-4.709,1.952-7.294,2.47
c-2.579-1.097-5.272,1.891-7.459-0.63c-0.573-1.668-0.742-3.507,0-5.168c0-2.069-0.808-4.133-0.632-6.029
c1.209-2.235,3.498-2.758,5.627-3.099c2.18-1.321,4.362-2.583,7.063-2.698l3.095-2.929c0.861-1.778,1.203-3.674,3.162-4.997
c1.832-1.546,0.231-3.785,1.028-5.792c1.321-2.123-0.742-3.9-0.634-6.026c-1.034-2.412-4.019-2.816-6.427-3.105
c-1.031-0.403-2.524-0.171-3.328-0.226c-2.527-1.092-5.516,0.862-8.326,0.226c-1.834-0.513-2.009-2.466-1.895-4.188
c1.67-2.757-1.318-4.589-0.572-7.463c-1.663-2.642-4.36-4.483-7.061-5.4c-3.043-2.406-7.229-2.406-11.02-2.29
c-1.487,0.402-3.098,0.745-3.557,2.294c-1.669,3.217-2.699,6.661-3.104,10.39c1.206,1.325,3.043,3.099,2.299,5.171
c-0.746,1.086-1.895,2.296-3.334,2.122c-4.069,0.805-7.688,0.175-11.651,0c-1.947-1.55-3.27-3.097-4.128-5.224
c-1.898-0.631-2.99-2.64-3.964-4.133c-3.272-1.776-6.66-3.275-10.392-3.96c-4.934-2.411-8.442,2.411-12.855,3.101
c-2.413,1.438-1.898,4.309-2.931,6.427c-1.145,2.753,1.378,4.248,2.694,6.031c0.924,1.895,1.608,3.845,2.702,5.624
c0.517,0.568-0.175,1.67,0.632,2.068c-0.115,2.698,2.24,5.917-0.398,8.091c0.06,3.618-1.271,6.659-1.902,9.99
c0.98,2.297-0.968,3.961-0.573,6.252c0.695,2.358-1.026,4.765,0.179,7.236c-0.922,2.928-1.091,6.48-4.368,8.091
c-0.286,1.782,1.266,2.18,1.896,3.563c0.518,1.024-0.229,2.572,0.633,3.494c-0.23,2.645,0.918,4.709,2.47,6.436
c2.356,2.465,6.255,2.349,9.354,1.664c1.897-1.842,2.129-4.362,3.103-6.605c2.467-2.064,3.329-4.707,4.361-7.293
c2.877-2.349,1.094-6.597,2.529-9.521c-0.404-2.409,1.492-4.19,0.805-6.486c2.466-2.758,0.059-7.634,3.728-9.763
c2.126-1.662,4.256-3.729,3.963-6.598c0.634-1.035,1.605-2.01,2.921-1.893c1.153,0.973,3.106,0.282,4.139,1.662
c2.183,0.171,3.498,2.298,5.396,3.1c1.38,0.403,2.639,1.781,4.131,1.262c0.748,0.805,2.013,0.805,2.128,2.068
c0,1.437,0.741,3.157,0.175,4.363c0.456,0.863-0.063,1.778,0,2.702c0.566,2.577,0.566,5.392,0.858,8.087l-0.46,0.866
c-1.093,0.917-2.641,1.606-4.136,1.027c-3.385,2.591-8.149,1.78-12.05,3.105c-2.242-0.35-3.621,1.538-5.803,0.396
c-0.916,0.86-1.724,1.72-1.656,2.929c-2.072,2.009-1.957,4.997-2.476,7.691c-0.17,2.006,1.723,2.696,2.476,4.36
c3.435,1.261,0.282,4.823,1.892,7.063c0.461,0.743,0.803,1.258,1.837,1.034c2.061,1.434,4.988-0.236,7.058,0.629
c1.605-1.379,3.557,0.119,5.22-1.263c2.132,0.286,4.192-0.69,6.434-0.631c0.975,0.515,1.834,1.377,2.061,2.523
c-0.628,2.24-0.05,5.052-0.227,7.638c1.208,1.322,0.289,3.443,0.863,4.992c-0.401,1.261-0.175,3.042-0.234,4.19l0.234,0.171
c-0.798,1.834,0.631,3.732-0.401,5.398c1.148,4.187-2.694,6.831-3.966,10.217c-1.946,1.778-4.815,1.778-6.652,3.502
c-0.572,0.977,0.17,1.949,0.226,2.925c1.728,2.356,4.59,4.302,6.427,6.661c2.355,1.604,1.494,4.188,2.302,6.6
c1.831,3.216,4.817,6.945,8.491,7.922c3.562-0.287,6.49-0.175,9.529-1.665c5.169-0.063,2.296-5.513,3.566-8.324
c0.688-3.5,0.339-6.66,1.029-10.163c0.859-1.201-0.055-2.354,0.804-3.556V429.4c-0.462-2.987,0.349-5.166,0.63-8.096
c-1.209-2.584-0.456-5.911,0.225-8.495c0.753-4.477-3.205-8.096-0.63-12.287c-0.687-1.316-0.337-2.984-1.028-4.363
C316.27,394.899,314.834,392.43,316.502,391.626z M215.098,541.385c-0.176,1.811-0.479,3.163-0.909,4.058
c-0.627,1.362-1.448,2.327-2.465,2.892c-1.018,0.564-2.699,1.002-5.048,1.313v1.232h25.938v-1.232
c-2.934-0.545-4.949-1.345-6.044-2.397c-0.9-0.817-1.507-1.842-1.818-3.069c-0.313-1.229-0.471-3.168-0.471-5.818l-0.058-4.444
v-33.8l-16.901,2.112v1.232c1.76,0.118,3.109,0.419,4.049,0.905c0.939,0.487,1.74,1.275,2.406,2.364
c0.666,1.013,1.096,2.326,1.291,3.941s0.295,4.428,0.295,8.437v14.422C215.363,536.958,215.273,539.576,215.098,541.385z
M223.365,477.583c1.002-0.978,1.503-2.21,1.503-3.697c0-1.446-0.511-2.67-1.533-3.667c-1.024-0.999-2.282-1.497-3.777-1.497
c-1.494,0-2.754,0.498-3.776,1.497c-1.023,0.997-1.533,2.221-1.533,3.667c0,1.487,0.5,2.72,1.503,3.697
c1.004,0.979,2.272,1.467,3.807,1.467C221.091,479.049,222.361,478.561,223.365,477.583z M241.354,546.595
c4.218,3.561,9.297,5.341,15.236,5.341c2.931,0,5.675-0.411,8.233-1.232c2.558-0.821,5.283-2.172,8.175-4.049
c0,2.192,0.195,4.266,0.587,6.22l17.134-2.522v-1.467c-3.248,0-5.575-0.938-6.983-2.813c-1.409-1.875-2.113-5.02-2.113-9.435
v-67.916l-18.017,2.289v1.408c3.269,0,5.611,0.937,7.028,2.808c1.418,1.871,2.127,4.932,2.127,9.181v21.696
c-2.813-2.269-5.273-3.834-7.384-4.694c-2.109-0.86-4.647-1.291-7.616-1.291c-6.135,0-11.428,1.878-15.881,5.634
c-2.813,2.426-5,5.468-6.563,9.126c-1.563,3.657-2.343,7.639-2.343,11.941c0,4.069,0.721,7.815,2.167,11.238
C236.585,541.481,238.656,544.327,241.354,546.595z M244.731,515.962c1.033-3.247,2.466-6.045,4.299-8.393
c3.038-3.911,6.643-5.868,10.812-5.868c1.872,0,3.692,0.451,5.466,1.35c1.774,0.9,3.187,2.094,4.239,3.581
c1.207,1.721,2.045,3.941,2.512,6.66c0.469,2.72,0.702,6.798,0.702,12.236c0,5.203-0.233,9.183-0.702,11.941
c-0.467,2.758-1.285,5.076-2.454,6.954c-1.13,1.8-2.61,3.209-4.443,4.226c-1.831,1.018-3.76,1.526-5.786,1.526
c-4.247,0-7.833-1.996-10.756-5.987c-1.677-2.308-3-5.075-3.975-8.303c-0.974-3.228-1.46-6.523-1.46-9.889
C243.185,522.555,243.7,519.21,244.731,515.962z M293.759,548.826c2.528,2.073,5.946,3.11,10.257,3.11
c3.369,0,6.328-0.704,8.875-2.113c1.331-0.742,3.311-2.288,5.936-4.636c1.293,2.229,2.545,3.796,3.762,4.695
c1.842,1.368,4.151,2.054,6.934,2.054c5.048,0,8.276-2.054,9.684-6.162l-0.998-0.587c-0.939,1.292-1.751,2.152-2.436,2.583
c-0.685,0.43-1.633,0.646-2.846,0.646c-2.543,0-4.147-1.389-4.812-4.167c-0.313-1.33-0.471-3.834-0.471-7.512v-21.714
c0-2.776-0.156-4.753-0.47-5.927c-0.628-2.308-2.215-4.186-4.76-5.634c-1.766-0.978-3.959-1.779-6.584-2.405
c-2.626-0.626-5.154-0.939-7.585-0.939c-2.153,0-4.358,0.226-6.611,0.675c-2.253,0.45-4.145,1.027-5.671,1.731
c-2.822,1.37-4.234,3.051-4.234,5.046c0,1.331,0.45,2.436,1.351,3.316c0.899,0.88,2.015,1.32,3.345,1.32
c2.034,0,3.443-0.919,4.226-2.759l1.467-3.403c0.626-1.447,1.564-2.582,2.817-3.403c1.251-0.821,2.68-1.232,4.284-1.232
c1.329,0,2.611,0.293,3.843,0.88c1.232,0.587,2.239,1.37,3.023,2.348c1.721,2.112,2.582,5.458,2.582,10.035
c0,2.151-0.235,3.835-0.704,5.047c-0.471,1.213-1.331,2.27-2.582,3.169c-1.096,0.821-2.456,1.526-4.078,2.112
c-1.626,0.587-4.138,1.312-7.542,2.172c-2.896,0.744-5.105,1.478-6.632,2.2c-1.526,0.725-2.874,1.692-4.049,2.905
c-2.075,2.191-3.109,4.909-3.109,8.157C289.97,543.956,291.232,546.752,293.759,548.826z M302.93,532.981
c0.897-1.096,1.891-2.033,2.982-2.816c1.093-0.782,3.062-1.938,5.91-3.463c2.533-1.329,4.854-2.876,6.961-4.636v9.8
c0,4.969-0.605,8.765-1.814,11.385c-0.857,1.996-2.136,3.59-3.831,4.783c-1.697,1.193-3.5,1.789-5.411,1.789
c-2.186,0-3.988-0.84-5.412-2.522c-1.423-1.683-2.134-3.814-2.134-6.396C300.181,537.891,301.096,535.25,302.93,532.981z
M401.063,626.624c-0.626-1.016-1.048-2.335-1.262-3.956c-0.215-1.621-0.322-4.444-0.322-8.47v-31.827h-17.254v1.291
c2.973,0.509,5.008,1.29,6.104,2.346c0.9,0.859,1.496,1.896,1.791,3.106c0.293,1.211,0.438,3.146,0.438,5.802l0.06,4.338v11.487
c0,4.571-0.187,7.854-0.558,9.848c-0.369,1.993-1.122,3.751-2.253,5.274c-1.094,1.486-2.596,2.658-4.509,3.517
c-1.911,0.859-3.96,1.289-6.146,1.289c-1.989,0-3.786-0.381-5.386-1.145c-1.601-0.762-2.83-1.809-3.688-3.14
c-0.782-1.291-1.317-2.943-1.61-4.958c-0.294-2.016-0.438-5.115-0.438-9.302v-29.754h-33.628v1.291
c1.879,0.235,3.306,0.869,4.284,1.905c0.978,1.035,1.468,2.432,1.468,4.189c0,2.188-1.056,5.918-3.17,11.191l-8.568,21.153
l-9.812-25.137c-1.597-4.024-2.395-6.818-2.395-8.38c0-1.797,0.764-3.125,2.289-3.985c0.704-0.391,1.857-0.702,3.463-0.938v-1.291
h-22.257c-1.759-5.308-4.742-10.526-8.966-15.653c3.628-3.283,7.079-4.925,10.353-4.925c3.096,0,5.486,1.064,7.168,3.193
l3.054,3.993c2.329,3.018,4.926,4.525,7.792,4.525c1.88,0,3.445-0.687,4.7-2.063c1.254-1.375,1.882-3.082,1.882-5.125
c0-3.371-1.602-6.209-4.804-8.518c-2.671-1.863-6.184-2.796-10.54-2.796c-3.914,0-7.539,0.689-10.874,2.063
c-3.336,1.377-7.096,3.706-11.275,6.987c-8.881-6.033-17.579-9.051-26.103-9.051c-5.595,0-11.055,1.153-16.381,3.455
c-5.328,2.304-9.944,5.536-13.851,9.697c-6.659,6.996-9.988,14.967-9.988,23.912c0,6.997,2.129,13.396,6.389,19.196
c4.258,5.803,10.248,10.474,17.968,14.015c-7.986,2.049-13.488,3.962-16.504,5.742c-5.165,3.219-8.049,7.478-8.659,12.771
c-0.306-0.104-0.619-0.206-0.911-0.317c-3.789-1.44-7.178-3.653-10.163-6.643c-3.309-3.521-5.577-7.895-6.803-13.124
c-1.228-5.226-1.841-13.284-1.841-24.167V445.903c0-10.884,0.613-18.966,1.841-24.248c1.226-5.281,3.494-9.627,6.803-13.044
c2.985-3.093,6.374-5.333,10.163-6.722c3.785-1.386,8.723-2.24,14.806-2.561v-3.682H130.686v3.682
c6.188,0.32,11.176,1.175,14.965,2.561c3.785,1.389,7.174,3.629,10.163,6.722c3.306,3.417,5.573,7.737,6.802,12.964
c1.226,5.229,1.841,13.34,1.841,24.328v54.943H68.662v-54.943c0-10.884,0.612-18.966,1.84-24.248
c1.226-5.281,3.494-9.627,6.803-13.044c2.985-3.093,6.374-5.333,10.162-6.722c3.787-1.386,8.724-2.24,14.805-2.561v-3.682H0v3.682
c6.082,0.32,11.044,1.175,14.885,2.561c3.842,1.389,7.202,3.629,10.083,6.722c3.414,3.417,5.707,7.737,6.882,12.964
c1.174,5.229,1.761,13.34,1.761,24.328v153.638c0,10.991-0.587,19.101-1.761,24.327c-1.175,5.229-3.468,9.551-6.882,12.964
c-2.881,2.989-6.217,5.202-10.003,6.643c-3.788,1.44-8.777,2.32-14.965,2.641v3.682h102.271v-3.682
c-6.189-0.32-11.178-1.2-14.964-2.641c-3.789-1.44-7.122-3.653-10.003-6.643c-3.309-3.413-5.577-7.763-6.803-13.044
c-1.228-5.281-1.84-13.364-1.84-24.247v-91.172h95.794v91.172c0,10.991-0.615,19.101-1.841,24.327
c-1.229,5.229-3.496,9.551-6.802,12.964c-2.989,2.989-6.378,5.202-10.163,6.643c-3.789,1.44-8.777,2.32-14.965,2.641v3.682h88.662
c0.946,4.357,3.555,8.204,7.844,11.534c5.322,4.094,12.331,6.141,21.028,6.141h21.161c9.052,0,16.017,1.754,20.896,5.257
c4.881,3.505,7.321,8.54,7.321,15.107c0,8.162-3.66,14.794-10.981,19.898c-7.319,5.101-16.926,7.652-28.814,7.652
c-11.181,0-20.364-2.309-27.551-6.921c-7.188-4.614-10.781-10.515-10.781-17.702c0-4.525,1.175-8.209,3.526-11.047
c2.351-2.841,5.391-4.259,9.117-4.259c2.218,0,4.081,0.486,5.591,1.464c1.508,0.976,3.015,2.705,4.525,5.19l2.395-0.665v-1.465
c0-3.905-1.265-7.053-3.792-9.449c-2.53-2.396-5.79-3.594-9.783-3.594c-5.502,0-10.16,2.063-13.975,6.189
c-3.817,4.125-5.723,9.16-5.723,15.105c0,7.542,2.576,13.843,7.729,18.9c8.084,7.807,21.81,11.712,41.18,11.712
c18.034,0,31.719-3.326,41.047-9.981c9.062-6.479,13.593-15.485,13.593-27.02c0-10.471-3.911-18.587-11.73-24.356
c-4.002-2.928-8.666-5.078-13.998-6.455c-5.332-1.375-11.865-2.063-19.598-2.063H247.58c-11.108,0-16.662-2.839-16.662-8.519
c0-6.477,6.521-10.115,19.563-10.914c9.521-0.62,15.17-1.065,16.95-1.331c5.96-1.152,11.521-3.415,16.682-6.787
c10.319-6.743,15.482-15.927,15.482-27.553c0-3.381-0.483-6.727-1.437-10.037c0.962,0.227,1.813,0.619,2.553,1.18
c0.587,0.47,1.175,1.23,1.76,2.286c0.587,1.055,1.409,2.833,2.465,5.335l1.755,4.22l12.162,29.249
c1.481,3.596,2.222,6.116,2.222,7.562c0,1.021-0.39,2.475-1.171,4.36l-1.813,4.479c-1.521,3.652-3.491,5.479-5.909,5.479
c-0.508,0-0.946-0.059-1.317-0.177c-0.369-0.117-1.198-0.431-2.486-0.938c-1.327-0.548-2.497-0.822-3.511-0.822
c-1.211,0-2.187,0.304-2.927,0.91s-1.111,1.418-1.111,2.436c0,1.291,0.636,2.337,1.907,3.14c1.271,0.801,2.942,1.203,5.018,1.203
c3.248,0,5.928-1.232,8.041-3.697c1.251-1.487,2.894-4.694,4.929-9.624l17.019-41.314c2.465-5.986,4.263-9.839,5.398-11.561
c0.742-1.095,1.516-1.897,2.317-2.406c0.774-0.491,1.972-0.965,3.567-1.42c2.796,0.51,4.75,1.273,5.854,2.298
c0.858,0.859,1.445,1.896,1.76,3.106c0.313,1.212,0.47,3.146,0.47,5.802l0.058,4.456v20.397c0,4.298,1.448,7.621,4.344,9.965
c2.972,2.385,6.904,3.576,11.795,3.576c6.69,0,12.479-2.442,17.372-7.326c0,2.502,0.252,4.943,0.761,7.326l16.139-2.172v-1.232
c-1.76-0.117-3.109-0.42-4.049-0.909C402.588,628.509,401.768,627.718,401.063,626.624z M275.254,616.448
c-3.538,5.977-8.489,8.965-14.857,8.965c-6.281,0-11.435-3.009-15.459-9.032c-4.024-6.022-6.035-13.815-6.035-23.379
c0-4.605,0.575-9.211,1.725-13.815c1.15-4.604,2.697-8.501,4.644-11.689c3.892-6.377,9.021-9.564,15.391-9.564
c5.306,0,9.64,2.435,13.003,7.306c4.598,6.555,6.898,15.321,6.898,26.302C280.563,602.167,278.793,610.47,275.254,616.448z
M352.736,483.515c0.561,0.028,1.012,0.105,1.354,0.231c0.343,0.125,0.649,0.327,0.919,0.607c0.298,0.308,0.503,0.699,0.614,1.171
c0.111,0.473,0.168,1.206,0.168,2.199v4.644h-10.272v-4.644c0-0.983,0.057-1.715,0.167-2.192c0.111-0.477,0.314-0.87,0.615-1.178
c0.269-0.28,0.576-0.482,0.918-0.607c0.343-0.126,0.789-0.203,1.337-0.231v-0.333h-9.242v0.333
c0.55,0.028,0.999,0.105,1.347,0.231c0.347,0.125,0.648,0.327,0.909,0.607c0.31,0.308,0.517,0.699,0.623,1.171
c0.106,0.473,0.158,1.206,0.158,2.199v10.661c0,0.993-0.052,1.727-0.158,2.199s-0.313,0.863-0.623,1.171
c-0.261,0.271-0.56,0.471-0.902,0.601s-0.794,0.21-1.354,0.238v0.333h9.242v-0.333c-0.558-0.028-1.009-0.108-1.351-0.238
c-0.343-0.13-0.646-0.33-0.904-0.601c-0.301-0.308-0.504-0.701-0.615-1.179c-0.11-0.479-0.167-1.208-0.167-2.191v-5.338h10.272
v5.338c0,0.993-0.057,1.727-0.168,2.199s-0.316,0.863-0.614,1.171c-0.27,0.271-0.576,0.471-0.919,0.601
c-0.342,0.13-0.793,0.21-1.354,0.238v0.333h9.245v-0.333c-0.55-0.028-0.997-0.108-1.339-0.238c-0.343-0.13-0.647-0.33-0.919-0.601
c-0.298-0.318-0.503-0.713-0.614-1.187c-0.111-0.472-0.165-1.2-0.165-2.184v-10.661c0-0.983,0.054-1.715,0.165-2.192
c0.111-0.477,0.316-0.87,0.614-1.178c0.271-0.28,0.576-0.482,0.919-0.607c0.342-0.126,0.789-0.203,1.339-0.231v-0.333h-9.245
V483.515z M368.64,485.221c0.378,0,0.69-0.12,0.938-0.361c0.248-0.24,0.371-0.545,0.371-0.911c0-0.356-0.128-0.658-0.379-0.905
c-0.252-0.245-0.562-0.368-0.931-0.368c-0.368,0-0.68,0.123-0.933,0.368c-0.25,0.247-0.378,0.549-0.378,0.905
c0,0.366,0.125,0.671,0.371,0.911C367.948,485.101,368.26,485.221,368.64,485.221z M371.857,502.624
c-0.723-0.135-1.219-0.332-1.491-0.592c-0.22-0.2-0.37-0.453-0.446-0.756c-0.078-0.303-0.115-0.78-0.115-1.435l-0.015-1.095
v-8.332l-4.166,0.521v0.304c0.432,0.029,0.765,0.104,0.996,0.224c0.231,0.12,0.431,0.313,0.593,0.583
c0.166,0.249,0.272,0.573,0.319,0.971c0.05,0.398,0.073,1.092,0.073,2.08v3.555c0,0.845-0.021,1.49-0.066,1.936
c-0.042,0.446-0.118,0.78-0.224,1.001c-0.154,0.336-0.357,0.573-0.607,0.713c-0.251,0.14-0.666,0.246-1.245,0.323v0.304h6.395
V502.624z M377.568,501.872c1.039,0.877,2.291,1.315,3.756,1.315c0.723,0,1.398-0.101,2.029-0.304
c0.63-0.202,1.303-0.535,2.015-0.998c0,0.541,0.049,1.053,0.146,1.533l4.224-0.621v-0.361c-0.801,0-1.375-0.231-1.722-0.693
c-0.348-0.463-0.52-1.237-0.52-2.326v-16.741l-4.443,0.564v0.348c0.806,0,1.385,0.23,1.734,0.692
c0.35,0.46,0.523,1.215,0.523,2.262v5.348c-0.694-0.559-1.301-0.944-1.82-1.156s-1.146-0.318-1.878-0.318
c-1.512,0-2.815,0.463-3.914,1.389c-0.692,0.598-1.233,1.348-1.618,2.25c-0.385,0.901-0.576,1.883-0.576,2.943
c0,1.002,0.178,1.926,0.533,2.771C376.395,500.61,376.904,501.312,377.568,501.872z M378.402,494.32
c0.255-0.8,0.607-1.489,1.059-2.067c0.748-0.965,1.639-1.447,2.666-1.447c0.461,0,0.909,0.111,1.347,0.332
c0.437,0.222,0.784,0.517,1.044,0.884c0.297,0.424,0.505,0.971,0.621,1.642c0.113,0.669,0.172,1.676,0.172,3.016
c0,1.283-0.059,2.265-0.172,2.943c-0.116,0.681-0.319,1.252-0.607,1.715c-0.278,0.443-0.643,0.79-1.094,1.042
c-0.451,0.25-0.928,0.375-1.426,0.375c-1.047,0-1.931-0.491-2.652-1.475c-0.411-0.569-0.74-1.252-0.979-2.047
c-0.241-0.796-0.361-1.608-0.361-2.438C378.02,495.945,378.146,495.121,378.402,494.32z M399.655,496.027
c-0.269,0.203-0.604,0.377-1.004,0.521c-0.401,0.146-1.021,0.324-1.858,0.536c-0.714,0.183-1.26,0.363-1.635,0.542
c-0.376,0.179-0.709,0.417-0.999,0.716c-0.511,0.541-0.766,1.211-0.766,2.011c0,0.869,0.31,1.559,0.934,2.068
c0.623,0.512,1.467,0.767,2.527,0.767c0.831,0,1.561-0.174,2.189-0.52c0.328-0.183,0.814-0.564,1.462-1.144
c0.318,0.55,0.628,0.936,0.928,1.157c0.454,0.338,1.023,0.506,1.708,0.506c1.245,0,2.041-0.506,2.388-1.519l-0.245-0.145
c-0.231,0.318-0.433,0.53-0.601,0.637c-0.17,0.106-0.403,0.159-0.701,0.159c-0.628,0-1.022-0.342-1.188-1.027
c-0.076-0.328-0.116-0.944-0.116-1.852v-5.353c0-0.685-0.038-1.171-0.116-1.461c-0.152-0.569-0.545-1.032-1.174-1.389
c-0.434-0.24-0.975-0.438-1.622-0.593c-0.647-0.153-1.269-0.231-1.868-0.231c-0.531,0-1.075,0.056-1.63,0.166
c-0.556,0.111-1.023,0.253-1.398,0.427c-0.697,0.338-1.044,0.753-1.044,1.245c0,0.327,0.111,0.6,0.333,0.817
c0.222,0.216,0.496,0.324,0.824,0.324c0.501,0,0.848-0.227,1.042-0.679l0.361-0.84c0.156-0.356,0.387-0.637,0.694-0.839
c0.31-0.203,0.661-0.304,1.056-0.304c0.328,0,0.645,0.072,0.947,0.217c0.305,0.146,0.553,0.338,0.746,0.579
c0.423,0.521,0.636,1.345,0.636,2.474c0,0.53-0.057,0.944-0.173,1.243C400.178,495.544,399.965,495.805,399.655,496.027z
M400.496,495.825v2.415c0,1.226-0.151,2.161-0.448,2.808c-0.21,0.491-0.527,0.884-0.945,1.179
c-0.418,0.294-0.862,0.441-1.332,0.441c-0.538,0-0.985-0.208-1.335-0.622c-0.352-0.415-0.526-0.94-0.526-1.577
c0-0.743,0.227-1.394,0.678-1.953c0.222-0.27,0.466-0.501,0.735-0.694c0.269-0.193,0.755-0.478,1.457-0.853
C399.405,496.64,399.977,496.258,400.496,495.825z M419.234,484.259c0.34,0.469,0.512,1.242,0.512,2.322v16.968h0.579
c0.376-0.801,0.811-1.199,1.302-1.199c0.175,0,0.371,0.042,0.593,0.13l0.811,0.331c0.638,0.251,1.412,0.376,2.328,0.376
c1.746,0,3.177-0.524,4.297-1.574c1.292-1.204,1.939-2.851,1.939-4.941c0-2.09-0.676-3.708-2.022-4.854
c-1.089-0.935-2.364-1.402-3.828-1.402c-1.03,0-1.916,0.236-2.658,0.709c-0.365,0.24-0.751,0.611-1.154,1.112v-9.633l-4.427,0.607
v0.348C418.315,483.558,418.892,483.792,419.234,484.259z M422.449,492.683c0.231-0.549,0.586-0.994,1.067-1.335
c0.479-0.343,0.999-0.515,1.554-0.515c0.463,0,0.914,0.123,1.356,0.369c0.441,0.245,0.845,0.604,1.209,1.077
c0.461,0.567,0.817,1.259,1.065,2.072c0.25,0.814,0.375,1.674,0.375,2.579c0,1.725-0.382,3.145-1.146,4.263
c-0.763,1.117-1.731,1.676-2.902,1.676c-0.558,0-1.054-0.135-1.491-0.405c-0.437-0.27-0.765-0.64-0.986-1.112
c-0.183-0.395-0.331-1.025-0.447-1.893c-0.115-0.866-0.172-1.816-0.172-2.846C421.932,494.803,422.104,493.493,422.449,492.683z
M445.87,501.292c-0.307,0.309-0.694,0.55-1.159,0.723c-0.468,0.174-0.959,0.262-1.479,0.262c-0.701,0-1.373-0.155-2.011-0.463
c-0.64-0.309-1.176-0.733-1.608-1.273c-0.423-0.53-0.756-1.195-1.001-1.996c-0.246-0.801-0.369-1.62-0.369-2.46
c0-0.211,0.02-0.554,0.06-1.026h8.475c0-1.215-0.352-2.228-1.056-3.037c-0.453-0.521-1.006-0.919-1.663-1.194
c-0.656-0.275-1.37-0.412-2.14-0.412c-1.448,0-2.735,0.448-3.862,1.346c-1.554,1.234-2.328,2.937-2.328,5.106
c0,1.591,0.408,2.931,1.228,4.021c0.588,0.78,1.307,1.358,2.156,1.735c0.849,0.376,1.866,0.563,3.052,0.563
c1.37,0,2.467-0.286,3.291-0.859c0.824-0.574,1.362-1.426,1.613-2.554l-0.305-0.102
C446.516,500.416,446.215,500.955,445.87,501.292z M439.49,491.803c0.619-0.713,1.342-1.07,2.166-1.07
c0.489,0,0.95,0.138,1.382,0.413c0.433,0.273,0.78,0.647,1.037,1.12c0.288,0.521,0.466,1.264,0.534,2.228h-6.222
C438.503,493.415,438.869,492.517,439.49,491.803z M454.836,502.624c0.849,0.376,1.866,0.563,3.053,0.563
c1.369,0,2.466-0.286,3.29-0.859c0.824-0.574,1.362-1.426,1.613-2.554l-0.305-0.102c-0.248,0.743-0.548,1.282-0.893,1.62
c-0.308,0.309-0.695,0.55-1.16,0.723c-0.468,0.174-0.959,0.262-1.479,0.262c-0.702,0-1.372-0.155-2.011-0.463
c-0.64-0.309-1.176-0.733-1.608-1.273c-0.423-0.53-0.755-1.195-1.001-1.996s-0.368-1.62-0.368-2.46
c0-0.211,0.019-0.554,0.059-1.026h8.475c0-1.215-0.352-2.228-1.056-3.037c-0.453-0.521-1.006-0.919-1.663-1.194
c-0.656-0.275-1.369-0.412-2.14-0.412c-1.447,0-2.735,0.448-3.861,1.346c-1.555,1.234-2.329,2.937-2.329,5.106
c0,1.591,0.408,2.931,1.228,4.021C453.269,501.668,453.986,502.247,454.836,502.624z M455.215,491.803
c0.619-0.713,1.342-1.07,2.166-1.07c0.488,0,0.949,0.138,1.381,0.413c0.433,0.273,0.78,0.647,1.037,1.12
c0.288,0.521,0.466,1.264,0.534,2.228h-6.222C454.228,493.415,454.594,492.517,455.215,491.803z M476.286,482.951
c-0.454-0.261-1.056-0.391-1.81-0.391c-0.811,0-1.578,0.104-2.306,0.311c-0.729,0.207-1.346,0.494-1.849,0.86
c-0.564,0.415-0.955,0.868-1.175,1.36c-0.217,0.492-0.325,1.163-0.325,2.011v3.529h-2.098v0.55h2.098v7.454
c0,0.848-0.021,1.496-0.066,1.944c-0.043,0.447-0.118,0.782-0.225,1.004c-0.153,0.338-0.356,0.575-0.606,0.716
c-0.251,0.139-0.666,0.247-1.245,0.324v0.304h6.394v-0.304c-0.723-0.135-1.219-0.333-1.49-0.593
c-0.22-0.202-0.37-0.454-0.446-0.758c-0.078-0.304-0.115-0.782-0.115-1.438l-0.015-1.099v-7.556h2.862v-0.55h-2.848v-3.833
c0-0.829,0.037-1.464,0.115-1.902c0.076-0.438,0.215-0.793,0.418-1.063c0.185-0.24,0.439-0.436,0.768-0.586
c0.328-0.149,0.676-0.224,1.042-0.224c0.298,0,0.533,0.069,0.708,0.21c0.173,0.139,0.395,0.431,0.667,0.875
c0.19,0.317,0.385,0.547,0.578,0.688c0.191,0.14,0.418,0.209,0.678,0.209c0.272,0,0.501-0.096,0.688-0.289
c0.188-0.192,0.283-0.434,0.283-0.723C476.966,483.558,476.739,483.21,476.286,482.951z M345.389,536.693
c-0.723-0.135-1.219-0.333-1.49-0.593c-0.22-0.201-0.371-0.454-0.447-0.758c-0.077-0.304-0.115-0.782-0.115-1.438l-0.014-1.099
v-7.556h2.862v-0.549h-2.849v-3.834c0-0.829,0.038-1.463,0.115-1.902c0.076-0.438,0.216-0.792,0.418-1.063
c0.185-0.241,0.439-0.437,0.769-0.586c0.328-0.15,0.675-0.225,1.041-0.225c0.298,0,0.534,0.069,0.709,0.21
c0.172,0.14,0.395,0.431,0.666,0.875c0.191,0.318,0.385,0.547,0.579,0.688c0.19,0.14,0.418,0.209,0.678,0.209
c0.271,0,0.5-0.096,0.688-0.289c0.188-0.192,0.283-0.434,0.283-0.723c0-0.435-0.227-0.782-0.681-1.042
c-0.453-0.261-1.056-0.391-1.81-0.391c-0.81,0-1.577,0.104-2.305,0.311c-0.729,0.208-1.347,0.495-1.85,0.86
c-0.564,0.415-0.954,0.868-1.174,1.361c-0.217,0.491-0.326,1.161-0.326,2.01v3.53h-2.098v0.549h2.098v7.454
c0,0.849-0.021,1.497-0.066,1.944c-0.042,0.447-0.118,0.782-0.225,1.004c-0.152,0.338-0.355,0.575-0.606,0.716
c-0.251,0.139-0.666,0.248-1.245,0.324v0.304h6.395V536.693z M358.62,526.753c0.281,0,0.511-0.087,0.688-0.261
c0.18-0.174,0.27-0.395,0.27-0.665c0-0.365-0.151-0.674-0.449-0.925c-0.328-0.278-0.805-0.419-1.434-0.419
c-1.021,0-1.932,0.284-2.732,0.853c-0.435,0.309-0.824,0.767-1.172,1.374c0-0.619-0.083-1.36-0.248-2.227l-3.729,0.521v0.304
c0.433,0.029,0.766,0.104,0.997,0.224s0.43,0.314,0.593,0.583c0.165,0.249,0.271,0.573,0.318,0.971
c0.05,0.398,0.073,1.092,0.073,2.08v3.555c0,0.845-0.021,1.49-0.065,1.936c-0.043,0.446-0.118,0.781-0.225,1.001
c-0.154,0.336-0.357,0.573-0.607,0.713s-0.666,0.247-1.244,0.323v0.304h6.394v-0.304c-0.723-0.135-1.219-0.333-1.49-0.593
c-0.22-0.201-0.371-0.454-0.446-0.758c-0.078-0.304-0.116-0.782-0.116-1.438l-0.015-1.099v-2.7c0-1.513,0.183-2.693,0.549-3.54
c0.366-0.848,0.879-1.271,1.532-1.271c0.484,0,0.902,0.188,1.26,0.563l0.448,0.491
C358.009,526.619,358.295,526.753,358.62,526.753z M364.464,535.029c1.358,1.486,3.07,2.228,5.135,2.228s3.771-0.741,5.121-2.228
c1.099-1.204,1.648-2.579,1.648-4.122c0-1.562-0.578-2.96-1.735-4.195c-1.398-1.484-3.076-2.228-5.034-2.228
s-3.64,0.743-5.05,2.228c-1.154,1.225-1.733,2.618-1.733,4.181c0,0.752,0.142,1.485,0.425,2.199
C363.526,533.804,363.933,534.451,364.464,535.029z M366.648,526.521c0.789-1.146,1.729-1.718,2.82-1.718
c1.148,0,2.117,0.543,2.908,1.632c0.413,0.577,0.744,1.27,0.989,2.074c0.246,0.804,0.369,1.601,0.369,2.39
c0,0.762-0.116,1.549-0.348,2.363c-0.231,0.813-0.534,1.49-0.909,2.029c-0.359,0.521-0.782,0.926-1.273,1.214
c-0.493,0.289-0.999,0.434-1.519,0.434c-1.227,0-2.263-0.649-3.111-1.951c-0.753-1.164-1.129-2.585-1.129-4.262
C365.446,529.07,365.849,527.668,366.648,526.521z M386.542,525.004c-0.756,0.348-1.438,0.845-2.046,1.491
c-0.05-0.666-0.16-1.336-0.335-2.012l-3.976,0.492v0.304c0.432,0.028,0.766,0.103,0.997,0.224c0.231,0.12,0.43,0.315,0.593,0.584
c0.165,0.251,0.271,0.575,0.318,0.975c0.05,0.399,0.073,1.094,0.073,2.085v3.563c0,0.848-0.021,1.493-0.065,1.94
c-0.043,0.448-0.118,0.782-0.225,1.003c-0.154,0.337-0.357,0.575-0.607,0.715c-0.25,0.139-0.666,0.248-1.244,0.324v0.304h6.394
v-0.304c-0.723-0.135-1.219-0.333-1.49-0.593c-0.22-0.201-0.371-0.454-0.446-0.758c-0.078-0.304-0.116-0.783-0.116-1.438
l-0.015-1.07v-2.643c0-0.877,0.055-1.592,0.166-2.146c0.11-0.555,0.295-1.028,0.555-1.424c0.279-0.442,0.659-0.793,1.141-1.055
c0.479-0.26,0.995-0.39,1.543-0.39c0.481,0,0.914,0.1,1.299,0.297s0.683,0.469,0.896,0.815c0.203,0.328,0.34,0.754,0.411,1.279
c0.073,0.524,0.108,1.35,0.108,2.478v2.673c0,0.838-0.021,1.481-0.066,1.929c-0.042,0.447-0.118,0.782-0.222,1.004
c-0.166,0.338-0.371,0.575-0.617,0.716c-0.245,0.139-0.656,0.248-1.234,0.324v0.304h6.394v-0.304
c-0.734-0.135-1.235-0.333-1.505-0.593c-0.212-0.201-0.356-0.454-0.435-0.758s-0.115-0.783-0.115-1.438l-0.015-1.099v-2.788
c0-1.608,0.236-2.793,0.707-3.554c0.538-0.886,1.404-1.33,2.598-1.33c1.105,0,1.885,0.41,2.339,1.229
c0.19,0.348,0.32,0.766,0.39,1.257c0.065,0.491,0.099,1.271,0.099,2.341v2.76c0,0.838-0.021,1.481-0.063,1.929
c-0.043,0.447-0.118,0.782-0.225,1.004c-0.163,0.338-0.368,0.575-0.614,0.716c-0.245,0.139-0.659,0.248-1.237,0.324v0.304h6.394
v-0.304c-0.723-0.135-1.226-0.333-1.505-0.593c-0.212-0.201-0.356-0.454-0.435-0.758c-0.075-0.304-0.115-0.783-0.115-1.438
l-0.015-1.099v-4.897c0-1.021-0.363-1.847-1.091-2.479c-0.728-0.631-1.67-0.946-2.827-0.946c-0.859,0-1.66,0.174-2.402,0.521
c-0.742,0.348-1.48,0.893-2.213,1.635c-0.473-0.694-0.893-1.181-1.26-1.461c-0.606-0.463-1.364-0.694-2.27-0.694
C388.089,524.484,387.3,524.658,386.542,525.004z M428.323,529.909c1.188,0,2.038,0.212,2.554,0.637
c0.517,0.425,0.774,1.113,0.774,2.068c0,1.032-0.286,1.924-0.853,2.676c-0.416,0.54-0.947,0.965-1.592,1.273
c-0.647,0.309-1.338,0.462-2.069,0.462c-1.861,0-3.437-0.866-4.729-2.603c-0.666-0.897-1.173-1.932-1.521-3.104
s-0.52-2.418-0.52-3.739c0-2.768,0.723-5.227,2.17-7.377c0.714-1.051,1.481-1.811,2.306-2.279c0.827-0.468,1.812-0.701,2.96-0.701
c1.476,0,2.732,0.523,3.774,1.569c1.041,1.047,1.896,2.641,2.561,4.781l0.333-0.028l-0.173-6.293h-0.378
c-0.2,0.627-0.496,0.94-0.881,0.94c-0.175,0-0.366-0.044-0.579-0.13l-0.853-0.392c-0.744-0.327-1.445-0.564-2.106-0.708
c-0.659-0.146-1.375-0.218-2.147-0.218c-1.33,0-2.593,0.213-3.791,0.637c-1.195,0.424-2.251,1.027-3.167,1.809
c-1.117,0.965-1.986,2.189-2.604,3.674c-0.616,1.485-0.926,3.091-0.926,4.817c0,1.254,0.17,2.439,0.513,3.559
c0.343,1.118,0.831,2.083,1.469,2.893c0.849,1.08,1.956,1.91,3.319,2.489c1.365,0.577,2.896,0.866,4.594,0.866
c1.233,0,2.407-0.153,3.515-0.463c1.11-0.308,2.083-0.751,2.922-1.329c0.328-0.223,0.598-0.334,0.811-0.334
c0.175,0,0.443,0.067,0.81,0.202l-0.028-0.332c-0.04-0.733-0.059-1.272-0.059-1.62c0-1.264,0.092-2.106,0.276-2.532
c0.163-0.385,0.416-0.657,0.758-0.817c0.343-0.158,0.938-0.275,1.788-0.354v-0.332h-9.23V529.909z M444.956,535.345
c-0.077-0.303-0.115-0.78-0.115-1.435l-0.015-1.095v-8.332l-4.166,0.521v0.304c0.432,0.029,0.765,0.104,0.996,0.224
s0.431,0.314,0.593,0.583c0.166,0.249,0.272,0.573,0.319,0.971c0.05,0.398,0.073,1.092,0.073,2.08v3.555
c0,0.845-0.021,1.49-0.066,1.936c-0.042,0.446-0.118,0.781-0.225,1.001c-0.153,0.336-0.356,0.573-0.606,0.713
c-0.251,0.14-0.666,0.247-1.245,0.323v0.304h6.395v-0.304c-0.724-0.135-1.219-0.331-1.491-0.591
C445.183,535.901,445.032,535.648,444.956,535.345z M444.614,518.93c0.247-0.241,0.37-0.546,0.37-0.912
c0-0.356-0.127-0.658-0.378-0.904c-0.252-0.246-0.562-0.369-0.931-0.369c-0.368,0-0.68,0.123-0.933,0.369
c-0.251,0.246-0.378,0.548-0.378,0.904c0,0.366,0.125,0.671,0.371,0.912c0.248,0.24,0.56,0.361,0.939,0.361
C444.054,519.292,444.365,519.17,444.614,518.93z M459.652,517.02c-0.453-0.261-1.056-0.391-1.809-0.391
c-0.811,0-1.578,0.104-2.306,0.311c-0.729,0.208-1.347,0.495-1.85,0.86c-0.564,0.415-0.954,0.868-1.174,1.361
c-0.217,0.491-0.326,1.161-0.326,2.01v3.53h-2.098v0.549h2.098v7.454c0,0.849-0.021,1.497-0.065,1.944
c-0.043,0.447-0.119,0.782-0.225,1.004c-0.154,0.338-0.357,0.575-0.607,0.716c-0.25,0.139-0.666,0.248-1.244,0.324v0.304h6.394
v-0.304c-0.723-0.135-1.219-0.333-1.49-0.593c-0.22-0.201-0.371-0.454-0.446-0.758c-0.078-0.304-0.116-0.782-0.116-1.438
l-0.015-1.099v-7.556h2.863v-0.549h-2.849v-3.834c0-0.829,0.038-1.463,0.116-1.902c0.075-0.438,0.215-0.792,0.418-1.063
c0.184-0.241,0.439-0.437,0.768-0.586c0.328-0.15,0.676-0.225,1.041-0.225c0.298,0,0.534,0.069,0.709,0.21
c0.172,0.14,0.395,0.431,0.666,0.875c0.191,0.318,0.385,0.547,0.579,0.688c0.191,0.14,0.418,0.209,0.678,0.209
c0.271,0,0.501-0.096,0.688-0.289c0.188-0.192,0.283-0.434,0.283-0.723C460.333,517.627,460.106,517.28,459.652,517.02z
M473.491,535.609c-0.153-0.25-0.257-0.575-0.309-0.976c-0.055-0.399-0.081-1.095-0.081-2.088v-7.844h-4.254v0.317
c0.734,0.125,1.235,0.318,1.505,0.579c0.222,0.211,0.368,0.466,0.441,0.765s0.108,0.774,0.108,1.431l0.015,1.068v2.832
c0,1.127-0.045,1.936-0.137,2.427c-0.093,0.492-0.276,0.925-0.556,1.301c-0.269,0.366-0.64,0.655-1.112,0.867
c-0.47,0.212-0.976,0.317-1.514,0.317c-0.491,0-0.933-0.094-1.328-0.282c-0.394-0.188-0.698-0.445-0.909-0.773
c-0.193-0.318-0.326-0.726-0.396-1.223c-0.073-0.496-0.108-1.26-0.108-2.292v-7.334h-4.254v0.317
c0.725,0.125,1.226,0.318,1.504,0.579c0.213,0.211,0.357,0.466,0.435,0.765c0.078,0.299,0.116,0.776,0.116,1.431l0.015,1.098
v5.028c0,1.061,0.356,1.879,1.069,2.456c0.734,0.588,1.703,0.881,2.907,0.881c1.651,0,3.078-0.601,4.283-1.805
c0,0.617,0.063,1.218,0.188,1.805l3.978-0.535v-0.304c-0.435-0.027-0.768-0.104-0.999-0.224
C473.867,536.075,473.666,535.878,473.491,535.609z M500.194,525.801c-1.04-0.878-2.291-1.317-3.756-1.317
c-0.732,0-1.41,0.104-2.036,0.311c-0.626,0.208-1.294,0.553-2.008,1.035v-0.275c0-0.385-0.052-0.81-0.158-1.272l-4.226,0.593
v0.361c0.811,0,1.387,0.231,1.729,0.695c0.342,0.461,0.515,1.237,0.515,2.326v9.986c0,0.839-0.023,1.483-0.066,1.937
c-0.042,0.454-0.118,0.791-0.224,1.013c-0.154,0.337-0.357,0.573-0.607,0.707c-0.25,0.135-0.666,0.241-1.245,0.319v0.304h6.395
v-0.304c-0.724-0.125-1.22-0.318-1.491-0.577c-0.222-0.212-0.37-0.469-0.448-0.772c-0.076-0.304-0.116-0.782-0.116-1.437v-0.995
l-0.014-2.656c0.694,0.56,1.304,0.944,1.828,1.157s1.147,0.317,1.87,0.317c1.512,0,2.816-0.467,3.914-1.402
c0.704-0.589,1.245-1.336,1.625-2.242c0.381-0.907,0.571-1.885,0.571-2.937c0-1.013-0.179-1.938-0.535-2.777
C501.354,527.058,500.849,526.359,500.194,525.801z M499.354,533.337c-0.248,0.791-0.605,1.475-1.065,2.053
c-0.759,0.966-1.648,1.447-2.667,1.447c-0.451,0-0.895-0.111-1.332-0.332c-0.437-0.222-0.789-0.516-1.058-0.883
c-0.298-0.415-0.506-0.959-0.619-1.635c-0.116-0.675-0.175-1.679-0.175-3.008c0-1.273,0.059-2.255,0.175-2.944
c0.113-0.69,0.321-1.267,0.619-1.729c0.269-0.433,0.628-0.775,1.079-1.026s0.933-0.377,1.44-0.377
c1.039,0,1.918,0.493,2.639,1.477c0.423,0.569,0.751,1.251,0.987,2.047c0.233,0.795,0.352,1.607,0.352,2.438
C499.729,531.722,499.604,532.546,499.354,533.337z M513.943,524.484c-1.021,0-1.933,0.284-2.732,0.853
c-0.436,0.309-0.825,0.767-1.172,1.374c0-0.619-0.083-1.36-0.248-2.227l-3.729,0.521v0.304c0.433,0.029,0.765,0.104,0.997,0.224
c0.231,0.12,0.43,0.314,0.593,0.583c0.165,0.249,0.271,0.573,0.318,0.971c0.05,0.398,0.073,1.092,0.073,2.08v3.555
c0,0.845-0.021,1.49-0.066,1.936c-0.042,0.446-0.117,0.781-0.224,1.001c-0.154,0.336-0.357,0.573-0.607,0.713
c-0.251,0.14-0.666,0.247-1.245,0.323v0.304h6.395v-0.304c-0.723-0.135-1.219-0.333-1.49-0.593
c-0.22-0.201-0.371-0.454-0.447-0.758c-0.078-0.304-0.115-0.782-0.115-1.438l-0.015-1.099v-2.7c0-1.513,0.183-2.693,0.548-3.54
c0.366-0.848,0.879-1.271,1.533-1.271c0.484,0,0.902,0.188,1.26,0.563l0.448,0.491c0.241,0.27,0.526,0.404,0.853,0.404
c0.281,0,0.51-0.087,0.688-0.261c0.18-0.174,0.27-0.395,0.27-0.665c0-0.365-0.151-0.674-0.449-0.925
C515.049,524.625,514.571,524.484,513.943,524.484z M529.207,535.362c-0.308,0.309-0.695,0.55-1.16,0.723
c-0.468,0.174-0.959,0.262-1.479,0.262c-0.702,0-1.373-0.155-2.01-0.463c-0.641-0.309-1.177-0.733-1.608-1.273
c-0.423-0.53-0.757-1.195-1.002-1.996s-0.368-1.62-0.368-2.46c0-0.211,0.019-0.554,0.059-1.026h8.475
c0-1.215-0.352-2.227-1.056-3.037c-0.453-0.521-1.006-0.919-1.663-1.194c-0.656-0.275-1.369-0.412-2.14-0.412
c-1.448,0-2.735,0.449-3.862,1.346c-1.554,1.235-2.328,2.937-2.328,5.106c0,1.591,0.408,2.932,1.228,4.021
c0.589,0.781,1.307,1.36,2.157,1.736c0.848,0.376,1.865,0.563,3.052,0.563c1.37,0,2.466-0.285,3.29-0.859s1.363-1.426,1.613-2.554
l-0.305-0.102C529.852,534.485,529.552,535.025,529.207,535.362z M522.826,525.874c0.619-0.714,1.342-1.07,2.166-1.07
c0.489,0,0.95,0.137,1.383,0.412c0.432,0.273,0.779,0.648,1.036,1.121c0.288,0.521,0.466,1.263,0.534,2.227h-6.222
C521.84,527.484,522.206,526.586,522.826,525.874z M543.898,517.02c-0.454-0.261-1.056-0.391-1.81-0.391
c-0.811,0-1.578,0.104-2.306,0.311c-0.729,0.208-1.346,0.495-1.849,0.86c-0.565,0.415-0.954,0.868-1.175,1.361
c-0.217,0.491-0.325,1.161-0.325,2.01v3.53h-2.098v0.549h2.098v7.454c0,0.849-0.021,1.497-0.066,1.944
c-0.042,0.447-0.118,0.782-0.225,1.004c-0.153,0.338-0.356,0.575-0.606,0.716c-0.25,0.139-0.666,0.248-1.245,0.324v0.304h6.394
v-0.304c-0.723-0.135-1.219-0.333-1.49-0.593c-0.219-0.201-0.371-0.454-0.446-0.758c-0.078-0.304-0.115-0.782-0.115-1.438
l-0.015-1.099v-7.556h2.863v-0.549h-2.849v-3.834c0-0.829,0.037-1.463,0.115-1.902c0.075-0.438,0.215-0.792,0.418-1.063
c0.185-0.241,0.439-0.437,0.768-0.586c0.328-0.15,0.676-0.225,1.042-0.225c0.297,0,0.533,0.069,0.709,0.21
c0.172,0.14,0.395,0.431,0.666,0.875c0.191,0.318,0.385,0.547,0.578,0.688c0.191,0.14,0.418,0.209,0.678,0.209
c0.271,0,0.501-0.096,0.688-0.289c0.189-0.192,0.283-0.434,0.283-0.723C544.578,517.627,544.352,517.28,543.898,517.02z
M555.588,535.362c-0.308,0.309-0.694,0.55-1.16,0.723c-0.468,0.174-0.959,0.262-1.479,0.262c-0.701,0-1.372-0.155-2.01-0.463
c-0.641-0.309-1.177-0.733-1.608-1.273c-0.423-0.53-0.756-1.195-1.002-1.996c-0.245-0.801-0.368-1.62-0.368-2.46
c0-0.211,0.019-0.554,0.059-1.026h8.475c0-1.215-0.352-2.227-1.055-3.037c-0.454-0.521-1.007-0.919-1.663-1.194
c-0.657-0.275-1.37-0.412-2.141-0.412c-1.447,0-2.734,0.449-3.861,1.346c-1.554,1.235-2.329,2.937-2.329,5.106
c0,1.591,0.408,2.932,1.229,4.021c0.588,0.781,1.306,1.36,2.156,1.736c0.848,0.376,1.866,0.563,3.052,0.563
c1.37,0,2.466-0.285,3.29-0.859s1.363-1.426,1.613-2.554l-0.305-0.102C556.232,534.485,555.933,535.025,555.588,535.362z
M549.208,525.874c0.619-0.714,1.342-1.07,2.166-1.07c0.489,0,0.949,0.137,1.382,0.412c0.432,0.273,0.779,0.648,1.037,1.121
c0.288,0.521,0.465,1.263,0.533,2.227h-6.221C548.221,527.484,548.587,526.586,549.208,525.874z M564.96,526.329
c0.293-0.419,0.652-0.769,1.075-1.049c0.479-0.318,1.004-0.477,1.572-0.477c0.433,0,0.799,0.11,1.097,0.331
c0.153,0.116,0.271,0.252,0.354,0.405c0.08,0.155,0.188,0.444,0.323,0.868c0.3,0.917,0.763,1.375,1.389,1.375
c0.291,0,0.536-0.104,0.737-0.313c0.203-0.206,0.305-0.464,0.305-0.773c0-0.463-0.241-0.887-0.723-1.272
c-0.792-0.626-1.885-0.94-3.283-0.94c-1.014,0-1.946,0.179-2.8,0.535c-0.854,0.356-1.575,0.873-2.163,1.549
c-0.52,0.588-0.931,1.296-1.23,2.125c-0.298,0.831-0.446,1.669-0.446,2.519c0,1.734,0.538,3.172,1.618,4.311
c1.109,1.157,2.638,1.734,4.587,1.734c1.214,0,2.17-0.226,2.862-0.679c0.694-0.453,1.212-1.191,1.55-2.214l-0.291-0.102
c-0.278,0.694-0.571,1.197-0.881,1.505c-0.604,0.589-1.37,0.883-2.296,0.883c-1.114,0-2.088-0.434-2.914-1.302
c-0.532-0.551-0.95-1.234-1.257-2.055c-0.31-0.82-0.463-1.658-0.463-2.517c0-0.936,0.167-1.89,0.505-2.864
C564.41,527.276,564.668,526.749,564.96,526.329z M582.401,536.339c-0.288,0.178-0.647,0.267-1.082,0.267
c-0.345,0-0.666-0.067-0.966-0.202c-0.298-0.135-0.536-0.323-0.721-0.564c-0.345-0.434-0.517-1.157-0.517-2.169v-8.42h3.673
v-0.549h-3.673v-3.762h-0.542l-0.144,0.478c-0.175,0.56-0.359,1.015-0.555,1.367c-0.194,0.352-0.451,0.706-0.771,1.063
c-0.531,0.579-1.11,0.97-1.738,1.172v0.231h1.55v8.767c0,0.838,0.042,1.42,0.13,1.743c0.087,0.322,0.269,0.6,0.548,0.831
c0.521,0.444,1.351,0.665,2.489,0.665c0.857,0,1.573-0.14,2.147-0.419c0.573-0.279,1.021-0.709,1.339-1.287l-0.217-0.188
C583.008,535.834,582.689,536.161,582.401,536.339z M598.208,535.609c-0.153-0.25-0.258-0.575-0.31-0.976
c-0.055-0.399-0.08-1.095-0.08-2.088v-7.844h-4.254v0.317c0.734,0.125,1.234,0.318,1.504,0.579
c0.223,0.211,0.369,0.466,0.442,0.765s0.108,0.774,0.108,1.431l0.014,1.068v2.832c0,1.127-0.045,1.936-0.137,2.427
c-0.092,0.492-0.276,0.925-0.555,1.301c-0.27,0.366-0.641,0.655-1.113,0.867c-0.47,0.212-0.975,0.317-1.514,0.317
c-0.491,0-0.933-0.094-1.327-0.282s-0.699-0.445-0.909-0.773c-0.194-0.318-0.326-0.726-0.397-1.223
c-0.073-0.496-0.108-1.26-0.108-2.292v-7.334h-4.254v0.317c0.725,0.125,1.226,0.318,1.505,0.579
c0.212,0.211,0.356,0.466,0.435,0.765s0.115,0.776,0.115,1.431l0.015,1.098v5.028c0,1.061,0.356,1.879,1.069,2.456
c0.735,0.588,1.703,0.881,2.908,0.881c1.65,0,3.078-0.601,4.282-1.805c0,0.617,0.063,1.218,0.188,1.805l3.978-0.535v-0.304
c-0.435-0.027-0.768-0.104-0.999-0.224C598.583,536.075,598.383,535.878,598.208,535.609z M610.991,524.484
c-1.021,0-1.933,0.284-2.733,0.853c-0.435,0.309-0.824,0.767-1.172,1.374c0-0.619-0.082-1.36-0.247-2.227l-3.729,0.521v0.304
c0.432,0.029,0.765,0.104,0.996,0.224s0.43,0.314,0.593,0.583c0.165,0.249,0.272,0.573,0.319,0.971
c0.049,0.398,0.073,1.092,0.073,2.08v3.555c0,0.845-0.021,1.49-0.066,1.936c-0.043,0.446-0.118,0.781-0.225,1.001
c-0.153,0.336-0.356,0.573-0.606,0.713c-0.251,0.14-0.666,0.247-1.245,0.323v0.304h6.394v-0.304
c-0.723-0.135-1.219-0.333-1.49-0.593c-0.22-0.201-0.37-0.454-0.446-0.758c-0.078-0.304-0.115-0.782-0.115-1.438l-0.015-1.099
v-2.7c0-1.513,0.182-2.693,0.548-3.54c0.366-0.848,0.879-1.271,1.533-1.271c0.484,0,0.902,0.188,1.259,0.563l0.449,0.491
c0.24,0.27,0.526,0.404,0.853,0.404c0.281,0,0.51-0.087,0.688-0.261c0.18-0.174,0.269-0.395,0.269-0.665
c0-0.365-0.15-0.674-0.448-0.925C612.096,524.625,611.619,524.484,610.991,524.484z M627.145,533.742
c-0.248,0.743-0.548,1.283-0.893,1.62c-0.307,0.309-0.694,0.55-1.16,0.723c-0.468,0.174-0.959,0.262-1.479,0.262
c-0.701,0-1.372-0.155-2.01-0.463c-0.641-0.309-1.177-0.733-1.608-1.273c-0.423-0.53-0.756-1.195-1.002-1.996
c-0.245-0.801-0.368-1.62-0.368-2.46c0-0.211,0.019-0.554,0.059-1.026h8.475c0-1.215-0.352-2.227-1.055-3.037
c-0.454-0.521-1.007-0.919-1.663-1.194c-0.657-0.275-1.37-0.412-2.141-0.412c-1.447,0-2.734,0.449-3.861,1.346
c-1.554,1.235-2.329,2.937-2.329,5.106c0,1.591,0.408,2.932,1.229,4.021c0.588,0.781,1.306,1.36,2.156,1.736
c0.848,0.376,1.866,0.563,3.052,0.563c1.37,0,2.466-0.285,3.29-0.859s1.363-1.426,1.613-2.554L627.145,533.742z M619.872,525.874
c0.619-0.714,1.342-1.07,2.166-1.07c0.489,0,0.949,0.137,1.382,0.412c0.432,0.273,0.779,0.648,1.037,1.121
c0.288,0.521,0.465,1.263,0.533,2.227h-6.221C618.885,527.484,619.251,526.586,619.872,525.874z M336.573,571.83
c-0.366,0.289-0.862,0.563-1.49,0.824l0.13,0.317c0.831-0.174,1.559-0.512,2.185-1.015c0.598-0.474,1.077-1.079,1.441-1.818
c0.361-0.739,0.541-1.485,0.541-2.239c0-0.764-0.178-1.377-0.534-1.84c-0.356-0.465-0.824-0.696-1.403-0.696
c-0.475,0-0.878,0.174-1.216,0.521c-0.338,0.347-0.506,0.762-0.506,1.243c0,0.502,0.168,0.909,0.506,1.223
c0.338,0.313,0.771,0.47,1.301,0.47c0.194,0,0.421-0.043,0.681-0.13c-0.057,0.655-0.288,1.331-0.694,2.025
C337.254,571.167,336.939,571.54,336.573,571.83z M345.665,572.119c0.307,0.192,0.718,0.347,1.228,0.463
c0.514,0.116,1.037,0.174,1.578,0.174c0.907,0,1.793-0.152,2.662-0.456c0.867-0.304,1.557-0.701,2.066-1.194
c0.513-0.5,0.865-1.102,1.059-1.801c0.191-0.699,0.288-1.704,0.288-3.017v-12.916c0-1.023,0.071-1.78,0.21-2.271
c0.14-0.492,0.393-0.893,0.759-1.201c0.262-0.222,0.545-0.381,0.854-0.477c0.308-0.097,0.719-0.16,1.229-0.188v-0.333h-9.315
v0.333c0.964,0.077,1.727,0.41,2.286,0.999c0.356,0.356,0.588,0.848,0.694,1.475c0.087,0.491,0.13,1.041,0.13,1.648v12.802
c0,2.218-0.12,3.718-0.361,4.5c-0.185,0.568-0.446,1.003-0.789,1.302s-0.744,0.448-1.207,0.448c-0.356,0-0.646-0.09-0.869-0.268
c-0.222-0.179-0.413-0.476-0.578-0.89c-0.173-0.453-0.303-0.766-0.39-0.933c-0.088-0.169-0.189-0.312-0.306-0.428
c-0.24-0.231-0.533-0.348-0.881-0.348c-0.356,0-0.646,0.111-0.869,0.333c-0.222,0.223-0.333,0.507-0.333,0.854
C344.81,571.308,345.096,571.771,345.665,572.119z M362.123,558.789c0.222,0.216,0.496,0.324,0.824,0.324
c0.501,0,0.848-0.227,1.042-0.679l0.361-0.84c0.156-0.356,0.388-0.637,0.694-0.838c0.31-0.203,0.662-0.304,1.056-0.304
c0.329,0,0.645,0.072,0.947,0.216c0.305,0.146,0.553,0.338,0.746,0.579c0.423,0.521,0.636,1.345,0.636,2.474
c0,0.53-0.057,0.945-0.173,1.244c-0.115,0.299-0.328,0.56-0.637,0.78c-0.27,0.203-0.605,0.377-1.005,0.521
c-0.401,0.145-1.02,0.323-1.858,0.536c-0.713,0.183-1.259,0.363-1.635,0.542c-0.375,0.178-0.708,0.417-0.999,0.716
c-0.51,0.54-0.765,1.21-0.765,2.011c0,0.868,0.309,1.558,0.933,2.068c0.623,0.511,1.467,0.767,2.527,0.767
c0.831,0,1.562-0.174,2.189-0.521c0.328-0.183,0.815-0.564,1.462-1.143c0.319,0.549,0.629,0.936,0.929,1.157
c0.453,0.338,1.022,0.506,1.707,0.506c1.245,0,2.041-0.506,2.389-1.52l-0.246-0.144c-0.231,0.317-0.432,0.53-0.6,0.637
c-0.17,0.105-0.404,0.159-0.701,0.159c-0.629,0-1.023-0.343-1.188-1.027c-0.075-0.329-0.116-0.945-0.116-1.853v-5.353
c0-0.685-0.037-1.171-0.115-1.46c-0.153-0.569-0.546-1.032-1.174-1.39c-0.435-0.24-0.976-0.438-1.623-0.593
c-0.646-0.153-1.268-0.231-1.868-0.231c-0.531,0-1.075,0.056-1.63,0.167s-1.022,0.253-1.398,0.426
c-0.696,0.338-1.044,0.753-1.044,1.245C361.79,558.298,361.901,558.571,362.123,558.789z M368.46,563.959
c0,1.226-0.15,2.161-0.448,2.807c-0.21,0.491-0.526,0.885-0.944,1.179c-0.419,0.294-0.862,0.441-1.333,0.441
c-0.538,0-0.984-0.207-1.334-0.622c-0.352-0.415-0.527-0.94-0.527-1.577c0-0.742,0.227-1.394,0.679-1.953
c0.222-0.269,0.465-0.5,0.734-0.694c0.27-0.192,0.756-0.477,1.457-0.853c0.626-0.328,1.197-0.71,1.717-1.144V563.959z
M384.005,568.907c1.512,0,2.815-0.467,3.914-1.403c0.704-0.589,1.244-1.336,1.625-2.242c0.38-0.906,0.571-1.885,0.571-2.937
c0-1.013-0.18-1.938-0.536-2.777s-0.862-1.538-1.517-2.097c-1.039-0.878-2.291-1.317-3.755-1.317
c-0.732,0-1.411,0.104-2.036,0.311c-0.626,0.208-1.295,0.553-2.008,1.035v-0.275c0-0.385-0.053-0.809-0.158-1.271l-4.226,0.593
v0.361c0.81,0,1.386,0.231,1.729,0.694c0.343,0.462,0.515,1.237,0.515,2.326v9.986c0,0.839-0.023,1.484-0.065,1.938
c-0.043,0.453-0.118,0.79-0.225,1.012c-0.153,0.337-0.356,0.573-0.607,0.708c-0.25,0.135-0.666,0.24-1.244,0.318v0.304h6.394
v-0.304c-0.723-0.125-1.219-0.317-1.49-0.577c-0.222-0.212-0.371-0.469-0.449-0.772c-0.075-0.304-0.115-0.782-0.115-1.437v-0.995
l-0.015-2.656c0.694,0.56,1.304,0.944,1.829,1.157C382.658,568.801,383.282,568.907,384.005,568.907z M381.1,567.272
c-0.298-0.415-0.506-0.959-0.619-1.635c-0.115-0.675-0.175-1.678-0.175-3.008c0-1.273,0.06-2.255,0.175-2.944
c0.113-0.689,0.321-1.267,0.619-1.729c0.27-0.434,0.628-0.775,1.079-1.026s0.934-0.376,1.441-0.376
c1.039,0,1.918,0.492,2.638,1.476c0.423,0.569,0.752,1.251,0.987,2.047c0.234,0.795,0.353,1.607,0.353,2.438
c0,0.859-0.125,1.684-0.376,2.474c-0.248,0.791-0.604,1.475-1.065,2.054c-0.758,0.965-1.648,1.446-2.666,1.446
c-0.451,0-0.896-0.111-1.333-0.332C381.721,567.933,381.369,567.639,381.1,567.272z M403.664,567.012
c-0.076-0.329-0.116-0.945-0.116-1.853v-5.353c0-0.685-0.038-1.171-0.115-1.46c-0.154-0.569-0.546-1.032-1.174-1.39
c-0.435-0.24-0.976-0.438-1.623-0.593c-0.647-0.153-1.269-0.231-1.868-0.231c-0.531,0-1.075,0.056-1.63,0.167
c-0.556,0.111-1.022,0.253-1.398,0.426c-0.696,0.338-1.044,0.753-1.044,1.245c0,0.327,0.111,0.6,0.333,0.817
c0.222,0.216,0.496,0.324,0.824,0.324c0.501,0,0.848-0.227,1.042-0.679l0.361-0.84c0.156-0.356,0.387-0.637,0.694-0.838
c0.31-0.203,0.661-0.304,1.056-0.304c0.328,0,0.645,0.072,0.947,0.216c0.305,0.146,0.553,0.338,0.746,0.579
c0.423,0.521,0.636,1.345,0.636,2.474c0,0.53-0.057,0.945-0.173,1.244c-0.115,0.299-0.328,0.56-0.638,0.78
c-0.27,0.203-0.604,0.377-1.004,0.521c-0.401,0.145-1.02,0.323-1.858,0.536c-0.713,0.183-1.259,0.363-1.635,0.542
c-0.375,0.178-0.709,0.417-0.999,0.716c-0.51,0.54-0.766,1.21-0.766,2.011c0,0.868,0.31,1.558,0.934,2.068
c0.623,0.511,1.467,0.767,2.527,0.767c0.831,0,1.562-0.174,2.189-0.521c0.328-0.183,0.815-0.564,1.462-1.143
c0.318,0.549,0.628,0.936,0.928,1.157c0.454,0.338,1.023,0.506,1.708,0.506c1.245,0,2.041-0.506,2.388-1.52l-0.245-0.144
c-0.231,0.317-0.433,0.53-0.6,0.637c-0.17,0.105-0.404,0.159-0.702,0.159C404.224,568.04,403.829,567.697,403.664,567.012z
M401.365,563.959c0,1.226-0.15,2.161-0.448,2.807c-0.21,0.491-0.527,0.885-0.944,1.179c-0.419,0.294-0.863,0.441-1.333,0.441
c-0.538,0-0.985-0.207-1.335-0.622c-0.352-0.415-0.526-0.94-0.526-1.577c0-0.742,0.228-1.394,0.678-1.953
c0.223-0.269,0.466-0.5,0.735-0.694c0.27-0.192,0.756-0.477,1.457-0.853c0.626-0.328,1.197-0.71,1.717-1.144V563.959z
M421.584,566.992c-0.075-0.304-0.115-0.783-0.115-1.438v-6.127c0-1.05-0.371-1.858-1.112-2.427
c-0.754-0.577-1.746-0.867-2.981-0.867c-1.648,0-3.07,0.602-4.266,1.804v-0.232c0-0.484-0.068-1.009-0.205-1.571l-3.962,0.521
v0.303c0.433,0.03,0.766,0.104,0.997,0.224c0.231,0.12,0.43,0.314,0.593,0.584c0.165,0.249,0.272,0.572,0.319,0.971
c0.049,0.397,0.073,1.091,0.073,2.079v3.555c0,0.845-0.021,1.491-0.066,1.937c-0.043,0.446-0.118,0.78-0.224,1
c-0.154,0.337-0.357,0.574-0.607,0.713c-0.251,0.14-0.666,0.247-1.245,0.324v0.303h6.394v-0.303
c-0.723-0.135-1.219-0.333-1.49-0.593c-0.22-0.202-0.37-0.455-0.446-0.759c-0.078-0.304-0.115-0.783-0.115-1.438l-0.015-1.069
v-2.831c0-1.127,0.045-1.934,0.135-2.42c0.092-0.486,0.283-0.923,0.571-1.308c0.27-0.366,0.638-0.655,1.104-0.867
c0.468-0.212,0.971-0.317,1.509-0.317c0.501,0,0.957,0.094,1.37,0.281s0.732,0.45,0.952,0.788c0.203,0.299,0.34,0.693,0.413,1.185
c0.071,0.491,0.106,1.261,0.106,2.311v3.063c0,0.838-0.021,1.481-0.063,1.929c-0.045,0.448-0.118,0.782-0.225,1.004
c-0.153,0.338-0.356,0.575-0.607,0.716c-0.25,0.14-0.666,0.248-1.244,0.325v0.303h6.394v-0.303
c-0.723-0.135-1.221-0.333-1.49-0.593C421.811,567.548,421.662,567.295,421.584,566.992z"/>
</g>
</g>
</svg>
